<svg width="215" height="111" viewBox="0 0 215 111" fill="none" xmlns="http://www.w3.org/2000/svg">
<path d="M82.9748 46.0689C80.9774 46.0722 79.0302 45.4428 77.4127 44.271C75.7951 43.0992 74.5903 41.4451 73.971 39.5461L62.9664 42.2273C63.9213 45.4544 65.6595 48.3953 68.0261 50.7881C70.3928 53.1808 73.3144 54.9512 76.5309 55.9415C79.7473 56.9318 83.1588 57.1112 86.4614 56.464C89.764 55.8167 92.8553 54.3627 95.46 52.2315L89.0173 43.8279C87.3273 45.2588 85.1891 46.0518 82.9748 46.0689V46.0689Z" fill="#EA8B2B"/>
<path d="M73.5108 36.6049C73.5096 35.0668 73.8846 33.5517 74.603 32.1916C75.3214 30.8316 76.3614 29.6678 77.6325 28.8017L69.8593 20.4482C67.4459 22.3597 65.4965 24.7927 64.1573 27.5648C62.818 30.3369 62.1236 33.3762 62.126 36.4549C62.1251 38.4095 62.4082 40.354 62.9664 42.2273L73.971 39.5462C73.6637 38.5961 73.5084 37.6034 73.5108 36.6049V36.6049Z" fill="#0060A1"/>
<path d="M82.9748 27.1509C84.5025 27.1651 86.0035 27.5532 87.3466 28.2814L92.5388 18.6274C89.0066 16.6335 84.9578 15.744 80.9151 16.0739C76.8724 16.4039 73.0214 17.9379 69.8593 20.4781L77.6325 28.8316C79.2018 27.743 81.0648 27.1569 82.9748 27.1509V27.1509Z" fill="#0079B6"/>
<path d="M91.3683 32.2831L99.9819 25.7804C98.1456 22.7903 95.5769 20.318 92.5188 18.5974L87.3466 28.2814C89.063 29.1753 90.4659 30.5712 91.3683 32.2831V32.2831Z" fill="#008FC9"/>
<path d="M123.112 27.1509C125.349 27.1534 127.514 27.9487 129.221 29.3955C130.927 30.8424 132.067 32.8473 132.436 35.0543L143.24 32.5532C142.586 29.158 141.081 25.9847 138.864 23.3313C136.647 20.6778 133.793 18.6314 130.568 17.3841C127.343 16.1368 123.854 15.7297 120.429 16.2009C117.004 16.6721 113.755 18.0063 110.987 20.078L117.729 28.8717C119.305 27.7616 121.184 27.1611 123.112 27.1509V27.1509Z" fill="#EA8B2B"/>
<path d="M114.988 41.3669L106.325 47.9597C108.888 51.7014 112.616 54.4907 116.929 55.893C118.06 52.4315 119.54 48.1097 120.35 45.6287C118.095 44.9248 116.183 43.4053 114.988 41.3669V41.3669Z" fill="#00A3DB"/>
<path d="M123.112 46.0689C122.161 46.0666 121.216 45.9182 120.31 45.6287C119.5 48.1097 118.019 52.4316 116.889 55.893C120.057 56.9192 123.429 57.1521 126.708 56.5712C129.987 55.9904 133.074 54.6136 135.697 52.5616L128.864 44.1081C127.216 45.379 125.193 46.0685 123.112 46.0689Z" fill="#00B0DF"/>
<path d="M132.576 36.6049C132.575 38.0567 132.24 39.4889 131.597 40.7902C130.953 42.0914 130.018 43.2268 128.864 44.108L135.697 52.5616C138.691 50.258 140.983 47.1651 142.315 43.6305C143.648 40.096 143.968 36.2598 143.24 32.5532L132.436 35.0542C132.523 35.5666 132.57 36.0851 132.576 36.6049V36.6049Z" fill="#48C0E3"/>
<path d="M13 95.8792V78H15.845L23.2562 89.7906V78H26.7945V95.8792H23.9495L16.5622 84.0886V95.8792H13Z" fill="white"/>
<path d="M38.3202 96C37.9377 96 37.4994 95.9597 37.0053 95.8792C36.5112 95.8148 36.033 95.6537 35.5708 95.396C35.1246 95.1383 34.75 94.7517 34.4472 94.2362C34.1603 93.7047 34.0169 92.9799 34.0169 92.0617V82.0832C34.0169 81.294 34.1364 80.6336 34.3755 80.102C34.6146 79.5705 34.9333 79.1517 35.3318 78.8456C35.7302 78.5396 36.1685 78.3221 36.6467 78.1933C37.1248 78.0644 37.595 78 38.0572 78C39.2526 78 40.3045 78.0161 41.2129 78.0483C42.1374 78.0805 42.9661 78.1208 43.6993 78.1691C44.4325 78.2013 45.1019 78.2497 45.7075 78.3141V81.3101H39.1091C38.615 81.3101 38.2325 81.4309 37.9616 81.6725C37.6906 81.9141 37.5551 82.2846 37.5551 82.7839V85.3691L44.56 85.5624V88.3893L37.5551 88.5825V91.047C37.5551 91.4658 37.6189 91.796 37.7464 92.0376C37.8898 92.2631 38.0731 92.4242 38.2963 92.5208C38.5353 92.6013 38.7824 92.6416 39.0374 92.6416H45.7075V95.6376C45.0062 95.7181 44.2253 95.7826 43.3646 95.8309C42.5199 95.8792 41.6592 95.9195 40.7826 95.9517C39.922 95.9839 39.1011 96 38.3202 96Z" fill="white"/>
<path d="M56.2907 95.8792V81.2134H51.4376V78H64.7061V81.2134H59.829V95.8792H56.2907Z" fill="white"/>
<path d="M70.9199 95.8792V78H74.4582V85.4416H81.1283V78H84.6905V95.8792H81.1283V88.655H74.4582V95.8792H70.9199Z" fill="white"/>
<path d="M96.3363 96C95.9538 96 95.5154 95.9597 95.0214 95.8792C94.5273 95.8148 94.0491 95.6537 93.5869 95.396C93.1407 95.1383 92.7661 94.7517 92.4633 94.2362C92.1764 93.7047 92.033 92.9799 92.033 92.0617V82.0832C92.033 81.294 92.1525 80.6336 92.3916 80.102C92.6306 79.5705 92.9494 79.1517 93.3479 78.8456C93.7463 78.5396 94.1846 78.3221 94.6628 78.1933C95.1409 78.0644 95.6111 78 96.0733 78C97.2686 78 98.3206 78.0161 99.229 78.0483C100.153 78.0805 100.982 78.1208 101.715 78.1691C102.449 78.2013 103.118 78.2497 103.724 78.3141V81.3101H97.1252C96.6311 81.3101 96.2486 81.4309 95.9777 81.6725C95.7067 81.9141 95.5712 82.2846 95.5712 82.7839V85.3691L102.576 85.5624V88.3893L95.5712 88.5825V91.047C95.5712 91.4658 95.635 91.796 95.7625 92.0376C95.9059 92.2631 96.0892 92.4242 96.3124 92.5208C96.5514 92.6013 96.7985 92.6416 97.0535 92.6416H103.724V95.6376C103.022 95.7181 102.241 95.7826 101.381 95.8309C100.536 95.8792 99.6753 95.9195 98.7987 95.9517C97.938 95.9839 97.1172 96 96.3363 96Z" fill="white"/>
<path d="M110.601 95.8792V78H117.917C118.618 78 119.272 78.0886 119.877 78.2658C120.483 78.4268 121.017 78.7168 121.479 79.1356C121.941 79.5544 122.3 80.1342 122.555 80.8752C122.826 81.6161 122.961 82.5664 122.961 83.7262C122.961 84.5477 122.882 85.2483 122.722 85.8282C122.563 86.4081 122.348 86.8832 122.077 87.2537C121.822 87.6242 121.527 87.9221 121.192 88.1476C120.857 88.3732 120.515 88.5584 120.164 88.7034L123.463 95.8792H119.853L117.008 89.2591C116.817 89.2591 116.594 89.2591 116.339 89.2591C116.1 89.243 115.853 89.2349 115.598 89.2349C115.343 89.2349 115.088 89.2349 114.833 89.2349C114.578 89.2349 114.347 89.2268 114.139 89.2107V95.8792H110.601ZM114.139 86.3839H117.295C117.614 86.3839 117.901 86.3436 118.156 86.2631C118.411 86.1826 118.634 86.0456 118.825 85.8523C119.017 85.643 119.16 85.3691 119.256 85.0309C119.367 84.6926 119.423 84.2577 119.423 83.7262C119.423 83.2268 119.367 82.8161 119.256 82.494C119.16 82.1557 119.017 81.898 118.825 81.7208C118.634 81.5275 118.411 81.3987 118.156 81.3342C117.901 81.2537 117.614 81.2134 117.295 81.2134H114.139V86.3839Z" fill="white"/>
<path d="M129.415 95.8792L131.471 78H134.866L138.93 91.6993L142.97 78H146.341L148.421 95.8792H145.003L143.473 82.7114L144.022 82.7597L140.556 95.8792H137.233L133.718 82.7597L134.316 82.7356L132.834 95.8792H129.415Z" fill="white"/>
<path d="M155.302 95.8792V78H158.84V95.8792H155.302Z" fill="white"/>
<path d="M166.332 95.8792V78H169.177L176.588 89.7906V78H180.127V95.8792H177.282L169.894 84.0886V95.8792H166.332Z" fill="white"/>
<path d="M187.349 95.8792V78H194.832C196.027 78 197.023 78.2174 197.82 78.6523C198.617 79.0711 199.247 79.6832 199.709 80.4886C200.187 81.2779 200.522 82.2201 200.713 83.3154C200.904 84.4107 201 85.6188 201 86.9396C201 88.953 200.769 90.6201 200.307 91.9409C199.86 93.2617 199.183 94.2523 198.275 94.9128C197.366 95.557 196.219 95.8792 194.832 95.8792H187.349ZM190.887 92.6658H194.473C195.206 92.6658 195.788 92.4564 196.219 92.0376C196.649 91.6027 196.96 90.9584 197.151 90.1047C197.358 89.251 197.462 88.196 197.462 86.9396C197.462 85.7799 197.398 84.8295 197.27 84.0886C197.143 83.3315 196.952 82.7436 196.697 82.3248C196.458 81.906 196.147 81.6161 195.764 81.455C195.398 81.294 194.967 81.2134 194.473 81.2134H190.887V92.6658Z" fill="white"/>
</svg>
