<svg width="406" height="73" viewBox="0 0 406 73" fill="none" xmlns="http://www.w3.org/2000/svg">
<path d="M37.1668 49.926C34.3762 49.9257 31.6571 49.0472 29.3978 47.416C27.1385 45.7847 25.4547 43.4841 24.5868 40.8428L9.18405 44.5718C10.513 49.0749 12.94 53.1806 16.2487 56.523C19.5573 59.8655 23.6449 62.3408 28.1472 63.7285C32.6495 65.1161 37.4265 65.373 42.0526 64.4761C46.6787 63.5793 51.0102 61.5566 54.661 58.5884L45.638 46.8702C43.2614 48.8464 40.263 49.928 37.1668 49.926Z" fill="#EA9E30"/>
<path d="M23.9267 36.7456C23.9288 34.6041 24.4554 32.4954 25.4609 30.6024C26.4663 28.7093 27.9202 27.0891 29.6965 25.8821L18.825 14.2191C14.3527 17.7373 11.0434 22.5111 9.32508 27.9228C7.60678 33.3345 7.55857 39.1351 9.18669 44.5744L24.5868 40.8428C24.1512 39.5203 23.9284 38.1375 23.9267 36.7456Z" fill="#007EBE"/>
<path d="M37.1668 23.5653C39.3017 23.5704 41.4029 24.0949 43.2878 25.0932L50.5522 11.6341C45.6073 8.86676 39.9449 7.63431 34.2917 8.09493C28.6384 8.55554 23.2524 10.6882 18.825 14.2191L29.7044 25.8663C31.902 24.3615 34.5078 23.5589 37.1748 23.5653" fill="#008ECE"/>
<path d="M48.9282 30.7024L61.0064 21.6561C58.436 17.4879 54.8418 14.0406 50.5627 11.6393L43.2878 25.0932C45.6981 26.3466 47.6661 28.3038 48.9282 30.7024Z" fill="#009CDD"/>
<path d="M93.3357 23.5653C96.4666 23.5661 99.4956 24.6731 101.884 26.6893C104.272 28.7056 105.864 31.5003 106.378 34.5761L121.49 31.0864C120.58 26.3457 118.473 21.9138 115.367 18.2085C112.261 14.5032 108.259 11.6467 103.738 9.90805C99.217 8.16944 94.3258 7.60608 89.5255 8.27106C84.7252 8.93605 80.174 10.8075 76.301 13.7089L85.7333 25.9636C87.9579 24.4015 90.6137 23.5637 93.3357 23.5653Z" fill="#EA9E30"/>
<path d="M81.9096 43.3779L69.7892 52.5636C73.3715 57.7757 78.5862 61.6595 84.6189 63.6086C86.2033 58.783 88.2683 52.7661 89.409 49.2975C86.2511 48.3205 83.573 46.2048 81.8991 43.3647" fill="#00A5E5"/>
<path d="M93.3357 49.926C92.0077 49.9214 90.6881 49.7157 89.4223 49.3159C88.2789 52.7819 86.2139 58.783 84.6295 63.6217C89.0612 65.0509 93.7775 65.3746 98.3642 64.5644C102.951 63.7542 107.268 61.8349 110.935 58.975L101.382 47.1831C99.0779 48.9568 96.2476 49.9179 93.3357 49.9155" fill="#00ACEB"/>
<path d="M106.576 36.7456C106.578 38.7685 106.11 40.7645 105.209 42.5775C104.308 44.3905 102.998 45.9713 101.382 47.1963L110.938 58.975C114.387 56.32 117.179 52.914 119.102 49.018C121.024 45.122 122.025 40.8394 122.029 36.4984C122.031 34.6833 121.854 32.8724 121.501 31.0916L106.388 34.5761C106.515 35.2925 106.581 36.0182 106.586 36.7456" fill="#21BCEC"/>
<path d="M147.352 47.4803V24.5173H151.049L160.709 39.662V24.5173H165.322V47.4803H161.625L151.995 32.3382V47.4803H147.352Z" fill="black"/>
<path d="M180.973 47.6355C180.399 47.6303 179.826 47.5837 179.259 47.4961C178.609 47.4004 177.982 47.1846 177.411 46.8597C176.793 46.5027 176.286 45.982 175.948 45.3555C175.562 44.6822 175.369 43.7566 175.369 42.5784V29.761C175.342 28.8899 175.502 28.023 175.837 27.218C176.111 26.5848 176.539 26.0297 177.083 25.6033C177.594 25.2158 178.176 24.9317 178.797 24.7671C179.399 24.6034 180.021 24.5194 180.645 24.5173C182.203 24.5173 183.579 24.5383 184.773 24.5804C185.966 24.6224 187.041 24.6689 187.997 24.7197C188.953 24.7723 189.824 24.8381 190.616 24.9222V28.7748H182.016C181.476 28.7407 180.943 28.9065 180.519 29.2403C180.165 29.5506 179.991 30.0292 179.991 30.6683V33.9818L189.119 34.2447V37.8738L179.991 38.1368V41.2925C179.967 41.7273 180.058 42.1607 180.255 42.5495C180.413 42.8336 180.666 43.0533 180.97 43.1701C181.274 43.2841 181.596 43.3421 181.921 43.3411H190.616V47.1831C189.699 47.2883 188.686 47.376 187.577 47.4461C186.468 47.5162 185.347 47.568 184.213 47.6013C183.072 47.6223 181.992 47.6337 180.973 47.6355Z" fill="black"/>
<path d="M205.029 47.4803V28.646H198.692V24.5173H215.985V28.646H209.64V47.4803H205.029Z" fill="black"/>
<path d="M224.72 47.4803V24.5173H229.333V34.0764H238.026V24.5173H242.669V47.4803H238.026V38.2025H229.333V47.4803H224.72Z" fill="black"/>
<path d="M258.467 47.6355C257.894 47.6305 257.321 47.5839 256.754 47.4961C256.103 47.3995 255.477 47.1837 254.905 46.8597C254.287 46.5027 253.781 45.982 253.442 45.3555C253.057 44.6822 252.865 43.7566 252.867 42.5784V29.761C252.834 28.8915 252.986 28.025 253.313 27.218C253.588 26.5846 254.017 26.0295 254.562 25.6033C255.073 25.2153 255.655 24.9312 256.276 24.7671C256.878 24.6031 257.5 24.5191 258.124 24.5173C259.682 24.5173 261.058 24.5383 262.251 24.5804C263.445 24.6224 264.521 24.6689 265.478 24.7197C266.432 24.7723 267.306 24.8381 268.095 24.9222V28.7748H259.495C258.956 28.7404 258.423 28.9062 258 29.2403C257.648 29.5506 257.472 30.0266 257.472 30.6683V33.9818L266.601 34.2447V37.8738L257.472 38.1368V41.2925C257.448 41.7273 257.539 42.1607 257.736 42.5495C257.894 42.8344 258.149 43.0543 258.454 43.1701C258.758 43.2841 259.08 43.3421 259.405 43.3411H268.1V47.1831C267.183 47.2883 266.17 47.376 265.061 47.4461C263.952 47.5162 262.831 47.568 261.697 47.6013C260.561 47.6223 259.485 47.6337 258.467 47.6355Z" fill="black"/>
<path d="M277.691 47.4803V24.5173H287.227C288.089 24.5101 288.948 24.6198 289.78 24.8433C290.556 25.053 291.271 25.4412 291.869 25.9768C292.521 26.5918 293.008 27.3592 293.287 28.2094C293.665 29.3928 293.839 30.6314 293.802 31.8727C293.818 32.7818 293.714 33.6892 293.49 34.5708C293.325 35.2279 293.045 35.851 292.664 36.4116C292.347 36.8618 291.951 37.2504 291.494 37.5582C291.072 37.8403 290.624 38.0799 290.155 38.2735L294.454 47.4777H289.754L286.057 38.9757C285.809 38.9757 285.523 38.9704 285.201 38.9599C284.879 38.9494 284.552 38.9441 284.219 38.9441H283.223C282.891 38.9441 282.59 38.9441 282.318 38.9125V47.4777L277.691 47.4803ZM282.302 35.2861H286.416C286.796 35.2907 287.174 35.2384 287.538 35.131C287.871 35.0282 288.172 34.8406 288.41 34.5866C288.681 34.2904 288.878 33.9345 288.985 33.5478C289.136 33.0026 289.204 32.438 289.189 31.8727C289.203 31.3325 289.135 30.7933 288.985 30.2738C288.881 29.9 288.683 29.5588 288.41 29.2824C288.166 29.0458 287.866 28.8748 287.538 28.7853C287.172 28.6874 286.795 28.6405 286.416 28.646H282.302V35.2861Z" fill="black"/>
<path d="M302.838 47.4803L305.516 24.5173H309.941L315.238 42.113L320.504 24.5173H324.898L327.61 47.4803H323.152L321.159 30.5683L321.874 30.6314L317.356 47.4803H313.026L308.447 30.6314L309.239 30.5999L307.306 47.4803H302.838Z" fill="black"/>
<path d="M337.206 47.4803V24.5173H341.816V47.4803H337.206Z" fill="black"/>
<path d="M352.194 47.4803V24.5173H355.891L365.55 39.662V24.5173H370.161V47.4803H366.464L356.826 32.3382V47.4803H352.194Z" fill="black"/>
<path d="M380.206 47.4803V24.5173H389.958C391.516 24.5173 392.814 24.7916 393.853 25.3404C394.885 25.8826 395.743 26.7027 396.33 27.7071C396.979 28.8339 397.418 30.069 397.623 31.352C397.883 32.8898 398.009 34.4472 397.998 36.0067C397.998 38.5943 397.702 40.7358 397.109 42.4312C396.515 44.1265 395.627 45.3932 394.444 46.2312C393.261 47.0692 391.765 47.4882 389.955 47.4882L380.206 47.4803ZM384.816 43.3542H389.49C389.905 43.3759 390.321 43.3143 390.711 43.1728C391.102 43.0314 391.46 42.8132 391.764 42.5311C392.327 41.9841 392.738 41.1619 392.997 40.0644C393.28 38.7281 393.41 37.3642 393.385 35.9988C393.405 34.7668 393.321 33.5354 393.137 32.3171C393.029 31.5292 392.78 30.7669 392.403 30.066C392.13 29.573 391.704 29.1817 391.188 28.951C390.649 28.7341 390.072 28.6285 389.49 28.6407H384.816V43.3542Z" fill="black"/>
</svg>
