<svg xmlns="http://www.w3.org/2000/svg" viewBox="0 0 249 130">
  <defs>
    <style>
      @media (prefers-color-scheme: light) {
        path { fill: #000000; }
      }
      @media (prefers-color-scheme: dark) {
        path { fill: #ffffff; }
      }
    </style>
  </defs>
  <g>
    <path d="M245.537 44.0497L211.653 54.505C207.322 43.3686 196.326 35.6303 183.692 36.043C177.841 36.2342 172.459 38.1599 168.002 41.2863L141.879 16.7162C152.728 7.10665 166.875 1.06877 182.493 0.558543C207.9 -0.271419 230.35 13.7396 241.5 34.7667C241.521 34.8126 241.55 34.8583 241.571 34.8975C242.075 35.8591 242.566 36.8278 243.024 37.8109C243.962 39.8362 244.795 41.8982 245.531 44.0433L245.537 44.0497Z"/>
    <path d="M108.264 111.513C99.0992 120.045 87.4154 125.946 74.3615 127.954C73.0736 128.159 71.7629 128.312 70.4507 128.439C69.6558 128.523 68.8595 128.581 68.0558 128.626C67.4713 128.658 66.8794 128.678 66.3011 128.704C65.9151 128.712 65.5221 128.714 65.1357 128.716C64.7962 128.721 64.4637 128.733 64.1231 128.719C63.9098 128.717 63.7035 128.722 63.4899 128.714C63.1434 128.714 62.8035 128.713 62.4625 128.692C61.5883 128.667 60.7196 128.623 59.8435 128.565C59.3022 128.535 58.7659 128.479 58.2301 128.429C57.7544 128.382 57.2854 128.335 56.8093 128.282C56.6012 128.253 56.4067 128.231 56.1986 128.203C55.8092 128.151 55.4133 128.1 55.0302 128.041C31.6645 124.611 12.1223 108.519 4.0705 86.643L37.827 75.3392C42.3611 86.4886 53.5985 94.0665 66.2986 93.357C72.0907 93.0334 77.3819 91.0194 81.748 87.8315L108.251 111.521L108.264 111.513Z"/>
    <path d="M35.7619 66.0463C35.365 58.9418 37.5658 52.2982 41.5357 47.0278L14.8853 23.207C12.026 26.6504 9.52367 30.4001 7.41401 34.381L6.37027 36.4508C4.13053 41.0851 2.44146 46.0349 1.36319 51.1837C0.232585 56.5885 -0.220803 62.1887 0.101174 67.9519C0.376784 72.8852 1.1974 77.6749 2.54566 82.2485L36.4612 70.9293C36.0994 69.3443 35.855 67.7128 35.7616 66.0396L35.7619 66.0463Z"/>
    <path d="M63.0732 35.5033C64.7537 35.4094 66.4029 35.4704 68.0189 35.6532L75.3063 0.911519C70.6106 0.108181 65.7575 -0.17351 60.7957 0.10369C55.0501 0.424677 49.5132 1.49995 44.2843 3.19743C39.2657 4.84319 34.5277 7.09936 30.15 9.84159L28.2735 11.0787C24.5313 13.6256 21.0817 16.5224 17.9785 19.7729L44.6008 43.5687C49.4251 38.9232 55.8667 35.9125 63.0802 35.5095L63.0732 35.5033Z"/>
    <path d="M87.9438 47.1491L90.1726 49.2359L113.712 22.9708C112.321 21.3367 110.847 19.754 109.303 18.2417L107.328 16.4072C107.328 16.4072 107.327 16.3873 107.307 16.3884C103.387 12.8842 99.0059 9.84539 94.3105 7.37692L92.3555 6.37385C88.4112 4.46952 84.1818 2.94745 79.8159 1.84595L72.5399 36.5537C78.7474 38.2983 84.1488 42.0727 87.9375 47.1561L87.9438 47.1491Z"/>
    <path d="M161.415 82.314L158.486 79.4554L134.365 105.175C135.711 106.841 137.128 108.458 138.636 109.979L140.568 111.878C140.568 111.878 140.588 111.878 140.589 111.898C144.454 115.491 148.736 118.631 153.373 121.208L155.304 122.229C159.23 124.25 163.397 125.87 167.736 127.066L175.822 92.5889C170.017 90.7359 164.992 87.1008 161.415 82.3073L161.415 82.314Z"/>
    <path d="M204.174 86.3865C199.255 90.8787 192.772 93.712 185.591 93.9466C183.795 94.0053 182.034 93.8898 180.322 93.633L172.236 128.097C176.911 129.009 181.757 129.403 186.717 129.241C192.468 129.053 198.029 128.106 203.296 126.53C208.351 125.001 213.14 122.855 217.58 120.215L219.484 119.021C223.285 116.562 226.8 113.746 229.978 110.568L204.174 86.3799L204.174 86.3865Z"/>
    <path d="M246.86 48.4719L212.975 58.9139C213.329 60.5791 213.551 62.2951 213.608 64.0498C213.842 71.2014 211.456 77.8265 207.319 83.0184L233.15 107.206C236.088 103.829 238.676 100.138 240.878 96.2075L241.969 94.1624C244.315 89.5813 246.145 84.671 247.342 79.5219C248.578 74.1653 249.154 68.5774 248.966 62.8082C248.803 57.8433 248.095 53.0625 246.853 48.4589L246.86 48.4719Z"/>
  </g>
</svg>
