<svg xmlns="http://www.w3.org/2000/svg" viewBox="0 0 478 81">
  <path d="M152.844 27.4198L131.751 33.9283C129.055 26.9958 122.21 22.1786 114.346 22.4355C110.704 22.5545 107.354 23.7533 104.579 25.6996L88.3179 10.4044C95.071 4.42228 103.877 0.66362 113.6 0.345997C129.415 -0.170665 143.39 8.55138 150.331 21.641C150.344 21.6696 150.362 21.698 150.375 21.7224C150.689 22.3211 150.994 22.9241 151.279 23.5361C151.863 24.7968 152.382 26.0805 152.84 27.4158L152.844 27.4198Z" fill="#FF9900"/>
  <path d="M67.393 69.4134C61.688 74.7241 54.415 78.3977 46.289 79.6477C45.4874 79.7755 44.6715 79.8708 43.8546 79.9496C43.3599 80.0021 42.8641 80.0381 42.3638 80.0661C42 80.0864 41.6315 80.0987 41.2716 80.1146C41.0313 80.1198 40.7866 80.121 40.5461 80.122C40.3348 80.1255 40.1278 80.1329 39.9158 80.1241C39.783 80.1232 39.6546 80.1262 39.5216 80.1212C39.3059 80.1208 39.0943 80.1202 38.8821 80.1072C38.3379 80.092 37.7971 80.0641 37.2518 80.0283C36.9148 80.0098 36.581 79.9745 36.2475 79.9434C35.9514 79.9143 35.6594 79.885 35.363 79.8518C35.2335 79.8342 35.1124 79.8202 34.9828 79.8026C34.7405 79.7705 34.494 79.7387 34.2555 79.7023C19.7107 77.5669 7.54583 67.5493 2.53369 53.9312L23.5467 46.8945C26.3691 53.8352 33.3644 58.5525 41.27 58.1108C44.8755 57.9094 48.1693 56.6556 50.8871 54.6712L67.385 69.418L67.393 69.4134Z" fill="#FF9900"/>
  <path d="M22.2614 41.1133C22.0143 36.6906 23.3843 32.555 25.8555 29.2741L9.26597 14.4453C7.48608 16.5888 5.92838 18.9231 4.61514 21.4013L3.96542 22.6897C2.57121 25.5746 1.51978 28.6559 0.848569 31.8611C0.144781 35.2257 -0.137448 38.7119 0.06298 42.2996C0.234544 45.3706 0.745369 48.3522 1.58464 51.1994L22.6967 44.153C22.4715 43.1664 22.3194 42.1507 22.2612 41.1091L22.2614 41.1133Z" fill="#00B3FF"/>
  <path d="M39.2629 22.1012C40.309 22.0428 41.3356 22.0808 42.3415 22.1946L46.8779 0.567432C43.9549 0.0673437 40.9338 -0.108012 37.8452 0.064548C34.2686 0.264366 30.8219 0.93374 27.567 1.99044C24.443 3.01495 21.4936 4.41944 18.7686 6.12651L17.6005 6.89663C15.271 8.4821 13.1237 10.2854 11.1919 12.3089L27.764 27.122C30.7671 24.2302 34.7769 22.356 39.2673 22.1051L39.2629 22.1012Z" fill="#00B3FF"/>
  <path d="M54.744 29.3463L56.1314 30.6453L70.7842 14.295C69.9186 13.2778 69.0008 12.2925 68.0399 11.3511L66.8106 10.2091C66.8106 10.2091 66.8099 10.1967 66.7975 10.1974C64.3571 8.01601 61.6301 6.12428 58.7072 4.58763L57.4903 3.96321C55.035 2.77774 52.4022 1.83023 49.6845 1.14453L45.1553 22.7506C49.0194 23.8366 52.3817 26.1862 54.7401 29.3507L54.744 29.3463Z" fill="#00B3FF"/>
  <path d="M100.479 51.2404L98.6555 49.4609L83.6406 65.4714C84.4783 66.5085 85.3606 67.5152 86.299 68.462L87.5019 69.6446C87.5019 69.6446 87.5143 69.6442 87.5147 69.6566C89.9205 71.8934 92.5865 73.8483 95.473 75.4522L96.6746 76.088C99.1189 77.346 101.712 78.3548 104.413 79.0991L109.447 57.6367C105.833 56.4832 102.706 54.2203 100.479 51.2363L100.479 51.2404Z" fill="#00B3FF"/>
  <path d="M127.097 53.7737C124.035 56.5701 119.999 58.3339 115.529 58.4799C114.411 58.5164 113.315 58.4446 112.249 58.2847L107.215 79.7388C110.126 80.3065 113.142 80.5517 116.23 80.4508C119.81 80.3339 123.271 79.7445 126.55 78.7634C129.697 77.8115 132.678 76.4757 135.442 74.8322L136.627 74.0893C138.993 72.5582 141.181 70.805 143.159 68.8268L127.097 53.7695L127.097 53.7737Z" fill="#00B3FF"/>
  <path d="M153.668 30.1722L132.574 36.6725C132.795 37.709 132.933 38.7773 132.969 39.8696C133.114 44.3216 131.629 48.4458 129.054 51.6778L145.133 66.7346C146.962 64.6329 148.573 62.3353 149.944 59.8882L150.623 58.6151C152.084 55.7633 153.223 52.7066 153.967 49.5012C154.737 46.1667 155.096 42.6881 154.978 39.0967C154.877 36.006 154.436 33.0299 153.663 30.1641L153.668 30.1722Z" fill="#00B3FF"/>
  <path d="M183 54.0412V26H187.469L199.095 44.4919V26H204.652V54.0412H200.183L188.596 35.5493V54.0412H183Z" fill="#00253D"/>
  <path d="M222.733 54.2323C222.134 54.2323 221.449 54.1692 220.668 54.0432C219.896 53.9407 219.139 53.6886 218.414 53.2868C217.712 52.885 217.129 52.2783 216.648 51.4667C216.199 50.6316 215.971 49.497 215.971 48.0552V32.4075C215.971 31.1705 216.16 30.1305 216.53 29.3032C216.908 28.468 217.405 27.8141 218.028 27.3335C218.65 26.8529 219.344 26.5141 220.093 26.3092C220.842 26.1043 221.583 26.0098 222.308 26.0098C224.184 26.0098 225.831 26.0334 227.258 26.0886C228.708 26.1359 230.008 26.1989 231.159 26.2777C232.31 26.325 233.358 26.4037 234.312 26.5062V31.202H223.955C223.183 31.202 222.576 31.3911 222.158 31.7693C221.732 32.1475 221.519 32.7306 221.519 33.5106V37.5682L232.515 37.8676V42.3035L221.519 42.6029V46.4715C221.519 47.1254 221.622 47.6454 221.819 48.0236C222.048 48.3782 222.331 48.6303 222.678 48.78C223.056 48.9061 223.443 48.9691 223.845 48.9691H234.312V53.665C233.208 53.791 231.987 53.8935 230.639 53.9644C229.315 54.0432 227.959 54.1062 226.588 54.1535C225.24 54.2007 223.947 54.2323 222.725 54.2323H222.733Z" fill="#00253D"/>
  <path d="M250.927 54.0412V31.0425H243.313V26H264.137V31.0425H256.484V54.0412H250.927Z" fill="#00253D"/>
  <path d="M273.887 54.0412V26H279.436V37.6687H289.904V26H295.492V54.0412H289.904V42.7113H279.436V54.0412H273.887Z" fill="#00253D"/>
  <path d="M313.77 54.2323C313.171 54.2323 312.486 54.1692 311.705 54.0432C310.933 53.9407 310.176 53.6886 309.451 53.2868C308.75 52.885 308.166 52.2783 307.685 51.4667C307.236 50.6316 307.008 49.497 307.008 48.0552V32.4075C307.008 31.1705 307.197 30.1305 307.567 29.3032C307.946 28.468 308.442 27.8141 309.065 27.3335C309.687 26.8529 310.381 26.5141 311.13 26.3092C311.879 26.1043 312.62 26.0098 313.345 26.0098C315.221 26.0098 316.868 26.0334 318.295 26.0886C319.745 26.1359 321.045 26.1989 322.196 26.2777C323.347 26.325 324.395 26.4037 325.349 26.5062V31.202H314.992C314.22 31.202 313.613 31.3911 313.195 31.7693C312.769 32.1475 312.557 32.7306 312.557 33.5106V37.5682L323.544 37.8676V42.3035L312.557 42.6029V46.4715C312.557 47.1254 312.659 47.6454 312.856 48.0236C313.085 48.3782 313.368 48.6303 313.715 48.78C314.094 48.9061 314.48 48.9691 314.882 48.9691H325.349V53.665C324.246 53.791 323.024 53.8935 321.676 53.9644C320.352 54.0432 318.996 54.1062 317.625 54.1535C316.277 54.2007 314.984 54.2323 313.762 54.2323H313.77Z" fill="#00253D"/>
  <path d="M336.148 26H347.624C348.727 26 349.752 26.1418 350.698 26.4176C351.651 26.6697 352.487 27.1267 353.212 27.7806C353.937 28.4346 354.497 29.3486 354.899 30.5068C355.324 31.665 355.537 33.162 355.537 34.982C355.537 36.2742 355.411 37.3694 355.159 38.2754C354.907 39.1815 354.576 39.93 354.15 40.5131C353.748 41.0961 353.291 41.561 352.763 41.9155C352.235 42.2701 351.699 42.5616 351.147 42.7901L356.325 54.0491H350.658L346.197 43.6646H345.149C344.77 43.641 344.384 43.6252 343.982 43.6252H342.784C342.382 43.6252 342.02 43.6095 341.696 43.5858V54.0491H336.148V26ZM341.704 39.15H346.654C347.159 39.15 347.608 39.087 348.002 38.9609C348.404 38.8348 348.751 38.6221 349.05 38.3148C349.35 37.9839 349.578 37.5584 349.728 37.0227C349.902 36.4948 349.988 35.8093 349.988 34.9741C349.988 34.1941 349.902 33.5481 349.728 33.0438C349.578 32.5159 349.35 32.1062 349.05 31.8304C348.751 31.531 348.404 31.3262 348.002 31.2238C347.6 31.0977 347.151 31.0347 346.654 31.0347H341.704V39.15Z" fill="#00253D"/>
  <path d="M365.673 54.0412L368.897 26H374.225L380.602 47.4859L386.939 26H392.228L395.491 54.0412H390.131L387.727 33.3905L388.594 33.4614L383.156 54.0412H377.938L372.42 33.4614L373.358 33.4299L371.033 54.0412H365.673Z" fill="#00253D"/>
  <path d="M411.838 26H406.289V54.0412H411.838V26Z" fill="#00253D"/>
  <path d="M423.598 54.0412V26H428.059L439.693 44.4919V26H445.242V54.0412H440.781L429.187 35.5493V54.0412H423.598Z" fill="#00253D"/>
  <path d="M456.577 26H468.321C470.197 26 471.757 26.3388 473.011 27.0243C474.264 27.6782 475.249 28.6394 475.974 29.908C476.723 31.145 477.251 32.6262 477.551 34.3438C477.85 36.0614 478 37.9603 478 40.0246C478 43.184 477.637 45.7998 476.912 47.872C476.211 49.9442 475.147 51.4963 473.72 52.5364C472.293 53.5449 470.496 54.0491 468.321 54.0491H456.577V26ZM462.126 48.9987H467.753C468.904 48.9987 469.819 48.6678 470.496 48.0138C471.174 47.3284 471.663 46.3199 471.962 44.9804C472.286 43.641 472.451 41.9864 472.451 40.0167C472.451 38.1966 472.349 36.7075 472.152 35.5414C471.955 34.3517 471.655 33.4299 471.253 32.7759C470.875 32.1219 470.394 31.665 469.787 31.4128C469.212 31.1607 468.534 31.0347 467.761 31.0347H462.134V48.9987H462.126Z" fill="#00253D"/>
</svg>
